<?xml version="1.0" encoding="utf-8"?>
<!-- Generator: Adobe Illustrator 22.0.1, SVG Export Plug-In . SVG Version: 6.00 Build 0)  -->
<svg version="1.1" id="Calque_1" xmlns="http://www.w3.org/2000/svg" xmlns:xlink="http://www.w3.org/1999/xlink" x="0px" y="0px"
	 viewBox="0 0 841.9 595.3" style="enable-background:new 0 0 841.9 595.3;" xml:space="preserve">
<style type="text/css">
	.st0{fill:#F3A617;}
	.st1{fill:#FFED00;}
	.st2{fill:#DA2E65;}
	.st3{fill:url(#SVGID_1_);}
	.st4{fill:#FFFFFF;}
	.st5{fill:url(#SVGID_2_);}
	.st6{fill:url(#SVGID_3_);}
</style>
<g>
	<g>
		<circle class="st0" cx="187.5" cy="142.3" r="52.5"/>
		<circle class="st1" cx="192.2" cy="148.1" r="52.8"/>
	</g>
	<path d="M220.9,238.6c-36.9,0-66.9-30-66.9-66.9s30-66.9,66.9-66.9s66.9,30,66.9,66.9c0,5.6-0.8,11.1-2.1,16.3h6.2
		c1.2-5.3,1.9-10.7,1.9-16.3c0-40.2-32.7-72.9-72.9-72.9s-72.9,32.7-72.9,72.9s32.7,72.9,72.9,72.9c7.8,0,15.4-1.3,22.5-3.6
		l-0.4-6.3C236,237.2,228.6,238.6,220.9,238.6z"/>
	<polygon points="428.3,476.3 263.9,476.3 242,190.4 448.1,190.4 443.7,253.6 450.5,253.6 455.2,185 234.9,185 257.5,481.7 
		434.6,481.7 434.7,463.5 429.2,463.5 	"/>
	<linearGradient id="SVGID_1_" gradientUnits="userSpaceOnUse" x1="-696.8278" y1="-729.6747" x2="628.9775" y2="596.1306">
		<stop  offset="0.1368" style="stop-color:#3AAA35"/>
		<stop  offset="0.2713" style="stop-color:#40AB38"/>
		<stop  offset="0.4095" style="stop-color:#50AF40"/>
		<stop  offset="0.5496" style="stop-color:#67B54E"/>
		<stop  offset="0.691" style="stop-color:#82BF65"/>
		<stop  offset="0.8333" style="stop-color:#A0CC85"/>
		<stop  offset="0.9746" style="stop-color:#C0DCAC"/>
		<stop  offset="1" style="stop-color:#C6DFB3"/>
	</linearGradient>
	<polygon class="st3" points="444.2,262.1 437.5,262.1 307.2,262.1 323.3,455 424.1,455 430.8,455 444.8,455 459.4,262.1 	"/>
	<g>
		<path d="M481.2,419.9c-2.1-4-5-7.6-8.4-10.6c-1.1-1-2.3-2-3.6-2.9c-1.3-0.9-2.7-1.6-4-2.2c-1.8-0.8-3.6-1.5-5.2-2.1
			c-1.8-0.7-3.8-1.1-5.8-1.3l-0.2,0c-3.9-0.1-8-0.2-12.1-0.2h-14.1v77.1h7v-70.1h18.4c0.1,0,0.2,0,0.3,0.1l1.2,0.3
			c0.4,0.1,0.9,0.2,1.3,0.3c0.5,0.2,1,0.3,1.4,0.4l0.3,0c0.2,0,0.4,0.1,0.7,0.2c0.6,0.2,0.7,0.3,0.7,0.3l0.5,0.2
			c4.2,1.5,7.9,3.9,10.9,7.1c3,3.3,5.4,7,6.9,11.2c0.9,2.6,1.5,5.5,1.9,8.6c0.4,3.2,0.4,6.4,0.1,9.6c-0.3,3.2-0.9,6.4-1.9,9.4
			c-0.9,3-2.3,5.6-4,8c-1.7,2.3-3.7,4.2-6.1,5.7c-2.3,1.4-4.9,1.9-8,1.5l-2.4-0.3v6.9l2,0.2c1.8,0.1,3.6,0.1,5.5-0.1
			c2.1-0.2,4-0.8,5.7-1.8c3.6-2.2,6.7-5,9.1-8.4c2.3-3.3,4.1-6.9,5.3-10.8c1.2-3.8,1.9-7.8,2.1-11.9c0.2-4.1-0.1-8-0.8-11.9
			C484.8,428.1,483.3,423.8,481.2,419.9z"/>
		<path d="M515.5,420.3c-2.7,0.8-5.3,2.1-7.7,3.7c-2.3,1.6-4.5,3.5-6.4,5.5c-0.4,0.4-0.7,0.8-1,1.2v-11.2h-6.9v57.9h6.9l0-28.1
			c0-0.2,0.1-0.5,0.1-1c0.1-0.8,0.2-1.4,0.2-1.8c0,0,0-0.2,0.2-0.9c0.1-0.7,0.2-1,0.2-1.3c0.6-2.6,1.7-5,3.1-7.1
			c1.5-2.2,3.2-4.1,5.2-5.7c2-1.6,4.3-2.8,6.8-3.7c2.5-0.9,5.1-1.4,7.9-1.4l2.1,0v-6.9l-2.1-0.1C521.1,419,518.2,419.4,515.5,420.3z
			"/>
		<rect x="527.8" y="419" width="6.7" height="58.4"/>
		<path d="M598.1,432.6c-2.2-4-5.2-7.2-8.9-9.6c-3.6-2.4-7.6-4-11.7-4.8c-4.1-0.8-8.4-0.7-12.7,0.3c-4.3,0.9-8.3,2.8-11.7,5.5
			c-2.1,1.5-3.7,3.1-5,4.9V419h-6.9v58.4h6.9v-31.2c0-1.6,0.3-3.4,1-5.2c0.7-1.9,1.6-3.7,2.4-5.2c1.6-2.6,3.6-4.8,5.8-6.4
			c2.2-1.7,4.6-2.9,7.2-3.7c2.5-0.8,5.1-1.2,7.8-1.1c2.7,0.1,5.3,0.6,7.8,1.5c2.5,0.9,4.8,2.3,6.9,4.1c2.1,1.8,3.9,4,5.4,6.6
			c0.9,1.5,1.6,3.2,2.3,5.1c0.6,1.8,0.9,3.6,0.9,5.3v30.2h6.7V446c0-2.4-0.4-4.8-1.3-7.1C600.2,436.6,599.2,434.4,598.1,432.6z"/>
		<rect x="609.2" y="388.1" width="6.7" height="89.4"/>
		<path d="M701,419c-1,0-1.7,0.5-2.3,1.6c-0.1,0.2-0.2,0.4-0.2,0.6l-19,45.8L657.3,419h-5.4h-2.3h-7l-22.5,26
			c-0.4,0.4-0.6,1-0.6,1.6c0,0.6,0.2,1.1,0.6,1.6c0.1,0.3,0.3,0.5,0.5,0.8l21.4,28.4h8.8L628,447l22.5-26.3l25.4,55.3
			c0,0.1-0.1,0.2-0.1,0.3l-11.8,29.2h7.5l35.5-86.5H701z"/>
	</g>
	<g>
		<circle class="st0" cx="530.9" cy="403.4" r="6.3"/>
		<circle class="st1" cx="531.4" cy="404.1" r="6.4"/>
	</g>
</g>
</svg>
